<svg width="36" height="47" viewBox="0 0 72 95" fill="none" xmlns="http://www.w3.org/2000/svg">
<path d="M41.4133 16.4655C45.6239 31.0826 42.5139 47.3958 50.0823 61.0983C54.5608 68.1044 56.6152 77.2896 53.7838 85.3027C51.8007 91.1215 45.1414 93.8837 39.3955 92.7499C33.078 91.9723 28.7776 86.3239 27.1088 80.54C24.7068 73.2684 23.9919 63.8712 20.9286 56.7778C18.4373 50.2181 13.6083 46.6016 6.60915 38.0498C-0.00903536 27.0319 -0.050419 13.678 10.1075 5.79185C15.7811 1.19191 25.4024 0.764075 31.337 4.57979C35.833 7.33173 39.4565 11.5509 41.4133 16.4655Z" stroke="black" stroke-width="4"/>
<path d="M52.0501 44.4668C55.3991 44.4668 58.114 41.7507 58.114 38.4002C58.114 35.0497 55.3991 32.3335 52.0501 32.3335C48.701 32.3335 45.9861 35.0497 45.9861 38.4002C45.9861 41.7507 48.701 44.4668 52.0501 44.4668Z" fill="black"/>
<path d="M31.0788 37.1363C27.0361 35.8724 22.7408 44.8039 21.4775 49.5224C20.8711 48.1068 21.0563 42.5289 21.2248 39.9168L21.4775 38.1474C23.7009 33.6985 26.9519 31.9122 28.2994 31.5752H32.5948C36.8395 32.3841 40.7643 36.6307 42.1961 38.653V41.1807L40.9327 42.6974H38.1534L31.0788 37.1363Z" fill="black" stroke="black"/>
<path d="M53.3134 45.4779H52.0501C49.6245 45.8824 49.6919 49.3539 50.0288 51.039C50.6351 54.4768 53.5661 58.6224 57.1034 59.3807H59.8827C66.7047 57.6112 70.0736 50.9548 71 47.5002V43.2029C69.383 48.4607 63.9254 52.64 61.3987 54.0724L59.8827 54.3251C57.6087 54.3251 56.0927 49.5224 54.8294 46.489L54.0714 45.7307L53.3134 45.4779Z" fill="black" stroke="black"/>
<path d="M24.0042 54.0724C22.185 56.9035 25.0991 59.802 26.7835 60.8974L8.33889 79.0974C7.15978 80.6983 5.55956 83.1418 7.83356 82.1307C10.3997 80.9897 26.194 70.4187 33.8582 65.4474C36.688 65.8518 37.0586 67.6381 36.8901 68.4807C34.6667 71.3118 25.6886 75.5585 21.4775 77.3279C39.0631 76.1146 43.7963 71.0928 43.9648 68.7335V65.953C40.1243 59.8863 32.4264 54.9993 29.0575 53.3141C26.0255 52.1008 24.4253 53.3141 24.0042 54.0724Z" fill="black" stroke="black"/>
</svg>
